<svg xmlns="http://www.w3.org/2000/svg" xmlns:xlink="http://www.w3.org/1999/xlink" width="1920" zoomAndPan="magnify" viewBox="0 0 1440 809.999993" height="1080" preserveAspectRatio="xMidYMid meet" version="1.0"><defs><clipPath id="268d4ab862"><path d="M 561.964844 480.171875 L 564.835938 480.171875 L 564.835938 482.609375 L 561.964844 482.609375 Z M 561.964844 480.171875 " clip-rule="nonzero"/></clipPath><clipPath id="09db8f5dbf"><path d="M 564.824219 481.050781 C 563.550781 483.074219 562.351562 482.699219 562.125 482.25 C 561.824219 481.875 562.050781 480.601562 562.5 480.300781 C 562.875 480 564.449219 480.449219 564.449219 480.449219 " clip-rule="nonzero"/></clipPath><clipPath id="35f4ce65ac"><path d="M 0.964844 0.171875 L 3.835938 0.171875 L 3.835938 2.609375 L 0.964844 2.609375 Z M 0.964844 0.171875 " clip-rule="nonzero"/></clipPath><clipPath id="f8ad48f28e"><path d="M 3.824219 1.050781 C 2.550781 3.074219 1.351562 2.699219 1.125 2.25 C 0.824219 1.875 1.050781 0.601562 1.5 0.300781 C 1.875 0 3.449219 0.449219 3.449219 0.449219 " clip-rule="nonzero"/></clipPath><clipPath id="69051edbbe"><rect x="0" width="4" y="0" height="3"/></clipPath><clipPath id="3cf485a6e2"><path d="M 585 282 L 880 282 L 880 552.300781 L 585 552.300781 Z M 585 282 " clip-rule="nonzero"/></clipPath><clipPath id="b3d8ffe808"><path d="M 637 256.800781 L 664 256.800781 L 664 317 L 637 317 Z M 637 256.800781 " clip-rule="nonzero"/></clipPath><clipPath id="f89d3d8a4f"><path d="M 798 256.800781 L 826 256.800781 L 826 317 L 798 317 Z M 798 256.800781 " clip-rule="nonzero"/></clipPath></defs><rect x="-144" width="1728" fill="#ffffff" y="-80.999999" height="971.999992" fill-opacity="1"/><g clip-path="url(#268d4ab862)"><g clip-path="url(#09db8f5dbf)"><g transform="matrix(1, 0, 0, 1, 561, 480)"><g clip-path="url(#69051edbbe)"><g clip-path="url(#35f4ce65ac)"><g clip-path="url(#f8ad48f28e)"><rect x="-877.8" width="2073.6" fill="#373a47" height="1166.39999" y="-658.199998" fill-opacity="1"/></g></g></g></g></g></g><g clip-path="url(#3cf485a6e2)"><path fill="#000000" d="M 852.917969 282.949219 L 834.285156 282.949219 L 834.285156 304.851562 C 834.285156 316.617188 824.480469 326.425781 812.710938 326.425781 L 811.40625 326.425781 C 799.636719 326.425781 789.832031 316.617188 789.832031 304.851562 L 789.832031 282.949219 L 672.480469 282.949219 L 672.480469 304.851562 C 672.480469 316.617188 662.675781 326.425781 650.90625 326.425781 L 649.597656 326.425781 C 637.832031 326.425781 628.023438 316.617188 628.023438 304.851562 L 628.023438 282.949219 L 611.679688 282.949219 C 596.972656 282.949219 585.203125 294.71875 585.203125 309.429688 L 585.203125 525.824219 C 585.203125 540.53125 596.972656 552.300781 611.679688 552.300781 L 820.558594 552.300781 L 823.5 551.644531 C 824.152344 551.320312 825.132812 550.664062 825.789062 550.011719 L 874.492188 498.691406 C 874.492188 498.691406 874.492188 498.363281 874.820312 498.363281 C 877.761719 495.421875 879.394531 491.171875 879.394531 486.925781 L 879.394531 309.429688 C 879.394531 294.71875 867.628906 282.949219 852.917969 282.949219 Z M 864.359375 489.210938 L 819.578125 535.957031 L 819.578125 500.652344 C 819.578125 493.789062 825.132812 488.230469 832 488.230469 L 865.011719 488.230469 C 864.6875 488.558594 864.359375 488.886719 864.359375 489.210938 Z M 865.339844 474.175781 L 832 474.175781 C 817.289062 474.175781 805.519531 485.941406 805.519531 500.652344 L 805.519531 537.917969 L 611.679688 537.917969 C 604.816406 537.917969 599.257812 532.359375 599.257812 525.496094 L 599.257812 356.824219 L 865.011719 356.824219 L 865.011719 474.175781 Z M 865.339844 474.175781 " fill-opacity="1" fill-rule="nonzero"/></g><g clip-path="url(#b3d8ffe808)"><path fill="#000000" d="M 650.90625 316.945312 C 657.769531 316.945312 663.328125 311.390625 663.328125 304.523438 L 663.328125 269.222656 C 663.328125 262.355469 657.769531 256.800781 650.90625 256.800781 L 649.597656 256.800781 C 642.734375 256.800781 637.179688 262.355469 637.179688 269.222656 L 637.179688 304.523438 C 637.179688 311.390625 642.734375 316.945312 649.597656 316.945312 Z M 650.90625 316.945312 " fill-opacity="1" fill-rule="nonzero"/></g><g clip-path="url(#f89d3d8a4f)"><path fill="#000000" d="M 812.710938 316.945312 C 819.578125 316.945312 825.132812 311.390625 825.132812 304.523438 L 825.132812 269.222656 C 825.132812 262.355469 819.578125 256.800781 812.710938 256.800781 L 811.40625 256.800781 C 804.539062 256.800781 798.984375 262.355469 798.984375 269.222656 L 798.984375 304.523438 C 798.984375 311.390625 804.539062 316.945312 811.40625 316.945312 Z M 812.710938 316.945312 " fill-opacity="1" fill-rule="nonzero"/></g><path fill="#000000" d="M 635.871094 386.246094 L 660.714844 386.246094 L 660.714844 411.085938 L 635.871094 411.085938 Z M 635.871094 386.246094 " fill-opacity="1" fill-rule="nonzero"/><path fill="#000000" d="M 692.09375 386.246094 L 716.9375 386.246094 L 716.9375 411.085938 L 692.09375 411.085938 Z M 692.09375 386.246094 " fill-opacity="1" fill-rule="nonzero"/><path fill="#000000" d="M 748.316406 386.246094 L 773.160156 386.246094 L 773.160156 411.085938 L 748.316406 411.085938 Z M 748.316406 386.246094 " fill-opacity="1" fill-rule="nonzero"/><path fill="#000000" d="M 804.214844 386.246094 L 829.054688 386.246094 L 829.054688 411.085938 L 804.214844 411.085938 Z M 804.214844 386.246094 " fill-opacity="1" fill-rule="nonzero"/><path fill="#000000" d="M 635.871094 433.96875 L 660.714844 433.96875 L 660.714844 458.8125 L 635.871094 458.8125 Z M 635.871094 433.96875 " fill-opacity="1" fill-rule="nonzero"/><path fill="#000000" d="M 692.09375 433.96875 L 716.9375 433.96875 L 716.9375 458.8125 L 692.09375 458.8125 Z M 692.09375 433.96875 " fill-opacity="1" fill-rule="nonzero"/><path fill="#000000" d="M 748.316406 433.96875 L 773.160156 433.96875 L 773.160156 458.8125 L 748.316406 458.8125 Z M 748.316406 433.96875 " fill-opacity="1" fill-rule="nonzero"/><path fill="#000000" d="M 804.214844 433.96875 L 829.054688 433.96875 L 829.054688 458.8125 L 804.214844 458.8125 Z M 804.214844 433.96875 " fill-opacity="1" fill-rule="nonzero"/><path fill="#000000" d="M 635.871094 482.019531 L 660.714844 482.019531 L 660.714844 506.863281 L 635.871094 506.863281 Z M 635.871094 482.019531 " fill-opacity="1" fill-rule="nonzero"/><path fill="#000000" d="M 692.09375 482.019531 L 716.9375 482.019531 L 716.9375 506.863281 L 692.09375 506.863281 Z M 692.09375 482.019531 " fill-opacity="1" fill-rule="nonzero"/><path fill="#000000" d="M 748.316406 482.019531 L 773.160156 482.019531 L 773.160156 506.863281 L 748.316406 506.863281 Z M 748.316406 482.019531 " fill-opacity="1" fill-rule="nonzero"/></svg>