<svg xmlns="http://www.w3.org/2000/svg" xmlns:xlink="http://www.w3.org/1999/xlink" width="2000" zoomAndPan="magnify" viewBox="0 0 1500 1499.999933" height="2000" preserveAspectRatio="xMidYMid meet" version="1.0"><path fill="#010101" d="M 1266.515625 849.722656 C 1255.773438 834.527344 1240.5 823.261719 1228.191406 809.476562 C 1220.371094 802.546875 1213.558594 791.515625 1201.847656 791.746094 C 1162.90625 791.242188 1123.941406 792.035156 1085 791.417969 C 1078.1875 728.367188 1062.316406 666.324219 1036.882812 608.230469 C 1093.226562 593.773438 1149.742188 580.203125 1206.085938 565.722656 C 1218.589844 563.574219 1224.9375 550.527344 1223.699219 538.757812 C 1222.75 493.671875 1224.824219 448.453125 1222.847656 403.425781 C 1218.746094 381.183594 1183.5 381.027344 1179.164062 403.191406 C 1177.632812 444.171875 1178.660156 485.269531 1178.484375 526.308594 C 1124.269531 539.703125 1070.191406 553.449219 1015.976562 566.960938 C 988.105469 517.539062 951.582031 472.550781 905.710938 438.773438 C 911.515625 405.613281 907.625 370.535156 892.199219 340.472656 C 879.8125 320.144531 887.476562 294.304688 898.277344 275.003906 C 922.589844 234.855469 968.421875 209.707031 1014.796875 206.554688 C 1023.738281 206.050781 1034.269531 204.925781 1039.398438 196.371094 C 1050.101562 182.742188 1038.605469 159.996094 1021.164062 161.238281 C 945.890625 161.875 869.285156 209.671875 845.476562 282.921875 C 791.496094 241.03125 709.988281 240.410156 656.238281 283.035156 C 630.960938 208.894531 552.496094 159.070312 475.324219 161.605469 C 452.816406 165.148438 452.351562 201.289062 474.878906 205.121094 C 526.441406 206.746094 579.574219 232.320312 605.027344 278.644531 C 614.027344 297.109375 621.902344 321.210938 609.359375 339.773438 C 593.375 370.011719 590.160156 405.417969 595.464844 438.8125 C 549.589844 472.472656 513.222656 517.578125 485.3125 566.882812 C 431.214844 553.371094 377.078125 539.800781 322.921875 526.347656 C 322.1875 485.308594 324.277344 444.210938 322.242188 403.230469 C 317.964844 381.105469 282.894531 380.988281 278.5 403.171875 C 277.085938 450.175781 277.882812 497.253906 278.054688 544.3125 C 277.4375 556.292969 288.140625 565.257812 299.210938 566.941406 C 354.375 580.453125 409.363281 594.46875 464.523438 608.039062 C 438.800781 666.015625 423.144531 728.289062 416.40625 791.28125 C 377.40625 792.191406 338.328125 791.050781 299.328125 791.726562 C 287.558594 791.550781 280.746094 802.433594 272.925781 809.402344 C 260.714844 822.738281 246.410156 834.179688 235.378906 848.523438 C 224.054688 866.023438 246.527344 889.503906 264.585938 879.59375 C 282.199219 867.824219 293.578125 848.621094 311.074219 836.964844 C 345.121094 836.054688 379.246094 837.199219 413.292969 836.636719 C 411.316406 869.914062 415.382812 903.132812 416.660156 936.234375 C 372.296875 1011.5 326.65625 1086.105469 281.964844 1161.195312 C 275.5 1169.519531 278.074219 1179.992188 281.402344 1189.011719 C 296.210938 1232.238281 309.933594 1275.929688 325.207031 1319.058594 C 333.199219 1341.125 369.78125 1332.335938 367.980469 1309.089844 C 355.652344 1264.21875 338.308594 1220.757812 325.089844 1176.117188 C 360.664062 1119.417969 393.199219 1060.878906 429.335938 1004.644531 C 447.628906 1080.933594 479.542969 1154.960938 529.578125 1215.976562 C 577.425781 1274.804688 645.089844 1321.304688 721.796875 1330.09375 C 794.070312 1339.441406 867.40625 1312.417969 922.296875 1265.863281 C 1001.210938 1199.542969 1048.667969 1102.65625 1072.148438 1003.640625 C 1104.121094 1056.5625 1135.691406 1109.703125 1167.664062 1162.625 C 1170.9375 1169.554688 1179.027344 1176.699219 1173.683594 1184.984375 C 1160.40625 1226.585938 1144.980469 1267.507812 1132.980469 1309.515625 C 1132.1875 1332.492188 1167.609375 1340.992188 1175.929688 1319.078125 C 1192.09375 1273.140625 1207.460938 1226.796875 1222.304688 1180.417969 C 1226.023438 1172.1875 1220.949219 1164.195312 1216.964844 1157.339844 C 1172.445312 1083.085938 1127.792969 1009 1083.449219 934.628906 C 1087.671875 902.144531 1089.199219 869.371094 1087.902344 836.675781 C 1121.949219 836.910156 1156.015625 836.445312 1190.058594 837.003906 C 1207.617188 848.367188 1218.820312 867.804688 1236.339844 879.574219 C 1254.066406 889.292969 1275.960938 867.511719 1266.515625 849.722656 Z M 1266.515625 849.722656 " fill-opacity="1" fill-rule="nonzero"/></svg>